<?xml version="1.0" encoding="UTF-8" standalone="no"?>
<!-- Created with Inkscape (http://www.inkscape.org/) -->

<svg
   version="1.1"
   id="svg1"
   width="181.12143"
   height="181.17119"
   viewBox="0 0 181.12143 181.17119"
   sodipodi:docname="ITS.svg"
   inkscape:version="1.4.2 (f4327f4, 2025-05-13)"
   xmlns:inkscape="http://www.inkscape.org/namespaces/inkscape"
   xmlns:sodipodi="http://sodipodi.sourceforge.net/DTD/sodipodi-0.dtd"
   xmlns="http://www.w3.org/2000/svg"
   xmlns:svg="http://www.w3.org/2000/svg">
  <defs
     id="defs1" />
  <sodipodi:namedview
     id="namedview1"
     pagecolor="#ffffff"
     bordercolor="#000000"
     borderopacity="0.25"
     inkscape:showpageshadow="2"
     inkscape:pageopacity="0.0"
     inkscape:pagecheckerboard="0"
     inkscape:deskcolor="#d1d1d1"
     inkscape:zoom="4.270444"
     inkscape:cx="59.829845"
     inkscape:cy="91.910818"
     inkscape:window-width="1920"
     inkscape:window-height="1009"
     inkscape:window-x="-8"
     inkscape:window-y="-8"
     inkscape:window-maximized="1"
     inkscape:current-layer="g1">
    <inkscape:page
       x="3.7035626e-08"
       y="1.3354141e-08"
       inkscape:label="1"
       id="page1"
       width="181.12143"
       height="181.17119"
       margin="0"
       bleed="0" />
  </sodipodi:namedview>
  <g
     id="g1"
     inkscape:groupmode="layer"
     inkscape:label="1"
     transform="translate(-3.9263441,-3.9009721)">
    <path
       id="path2"
       style="fill:#387ac6;fill-opacity:1;fill-rule:evenodd;stroke:none;stroke-width:0.133333"
       d="m 94.486328,5.1347656 c -6.2,-0.017333 -12.398723,0.5888594 -18.597656,1.8808594 V 17.716797 C 67.856939,19.671464 60.295161,22.8545 53.423828,27.0625 l -7.595703,-7.597656 c -10.6068,6.953333 -19.277492,15.84251 -26.337891,26.339844 l 7.595704,7.595703 c -4.206266,6.870667 -7.390683,14.431024 -9.34375,22.46289 H 7.0410156 c -2.5843733,12.414534 -2.4307333,24.830899 0,37.246099 H 17.742188 c 1.954132,8.03119 5.137084,15.59191 9.34375,22.46484 l -7.595704,7.59375 c 6.951466,10.6068 15.839891,19.27678 26.337891,26.33984 l 7.595703,-7.5957 c 6.871333,4.2084 14.431511,7.39015 22.464844,9.34375 v 10.70312 c 6.198933,1.29167 12.397656,1.89661 18.597656,1.87891 v -27.25391 c -34.192666,-0.0104 -62.076172,-27.90183 -62.076172,-62.095699 0,-34.196265 27.883506,-62.086279 62.076172,-62.099609 z" />
    <path
       id="path3"
       d="m 94.486931,183.83844 c -6.2,0.0177 -12.4,-0.58803 -18.598933,-1.8797 v -10.70261 c -8.033333,-1.9536 -15.592133,-5.13587 -22.463466,-9.34427 l -7.595866,7.5964 c -10.498,-7.06306 -19.386,-15.73333 -26.337466,-26.34013 l 7.595199,-7.5932 c -4.206666,-6.87293 -7.390533,-14.4344 -9.344666,-22.4656 H 7.0401065 c -2.4307333,-12.4152 -2.5843733,-24.830797 0,-37.245331 H 17.741733 C 19.6948,67.832133 22.879733,60.270667 27.085999,53.4 L 19.4912,45.804 C 26.551599,35.306667 35.221866,26.418667 45.828666,19.465334 l 7.595866,7.597333 c 6.871333,-4.208 14.431733,-7.391999 22.463466,-9.346666 V 7.0160012 c 6.198933,-1.292 12.398933,-1.8986666 18.598933,-1.8813333 V 32.388001 c -34.192666,0.01333 -62.075998,27.903066 -62.075998,62.099331 0,34.193868 27.883332,62.085998 62.075998,62.096398 z"
       style="fill:none;stroke:#211d1d;stroke-width:2.46667;stroke-linecap:butt;stroke-linejoin:miter;stroke-miterlimit:2.613;stroke-dasharray:none;stroke-opacity:1" />
    <path
       id="path4"
       d="m 94.486931,183.83844 c 6.202129,0.0177 12.399469,-0.58803 18.599069,-1.8797 v -10.70261 c 8.03373,-1.9536 15.59373,-5.13587 22.46466,-9.34427 l 7.59467,7.5964 C 153.644,162.4452 162.53066,153.77493 169.484,143.16813 l -7.596,-7.5932 c 4.208,-6.87293 7.392,-14.4344 9.34533,-22.4656 h 10.70133 c 2.42934,-12.4152 2.584,-24.830797 0,-37.245331 H 171.23333 C 169.28,67.832133 166.096,60.270667 161.888,53.4 l 7.596,-7.596 C 162.42133,35.306667 153.752,26.418667 143.14533,19.465334 l -7.59467,7.597333 c -6.87093,-4.208 -14.43093,-7.391999 -22.46466,-9.346666 V 7.0160012 c -6.1996,-1.292 -12.39694,-1.8986666 -18.599069,-1.8813333 V 32.388001 c 34.193729,0.01333 62.075729,27.903066 62.075729,62.099331 0,34.193868 -27.882,62.085998 -62.075729,62.096398 v 27.25471"
       style="fill:#7dc0df;fill-opacity:1;fill-rule:evenodd;stroke:none;stroke-width:0.133333" />
    <path
       id="path5"
       d="m 94.486931,183.83844 c 6.202129,0.0177 12.399469,-0.58803 18.599069,-1.8797 v -10.70261 c 8.03373,-1.9536 15.59373,-5.13587 22.46466,-9.34427 l 7.59467,7.5964 C 153.644,162.4452 162.53066,153.77493 169.484,143.16813 l -7.596,-7.5932 c 4.208,-6.87293 7.392,-14.4344 9.34533,-22.4656 h 10.70133 c 2.42934,-12.4152 2.584,-24.830797 0,-37.245331 H 171.23333 C 169.28,67.832133 166.096,60.270667 161.888,53.4 l 7.596,-7.596 C 162.42133,35.306667 153.752,26.418667 143.14533,19.465334 l -7.59467,7.597333 c -6.87093,-4.208 -14.43093,-7.391999 -22.46466,-9.346666 V 7.0160012 c -6.1996,-1.292 -12.39694,-1.8986666 -18.599069,-1.8813333 V 32.388001 c 34.193729,0.01333 62.075729,27.903066 62.075729,62.099331 0,34.193868 -27.882,62.085998 -62.075729,62.096398 z"
       style="fill:none;stroke:#211d1d;stroke-width:2.46667;stroke-linecap:butt;stroke-linejoin:miter;stroke-miterlimit:2.613;stroke-dasharray:none;stroke-opacity:1" />
    <path
       id="path6"
       style="fill:#e9e9e9;fill-opacity:1;fill-rule:evenodd;stroke:none;stroke-width:0.133333"
       d="m 107.22461,139.64258 -0.10352,0.043 -0.13281,0.0527 -0.23633,0.0918 -0.0195,0.008 -0.21484,0.0859 -0.16602,0.0664 -0.0684,0.0312 -0.23437,0.0918 -0.0781,0.0293 -0.15429,0.0644 -0.22266,0.0898 -0.01,0.004 -0.23046,0.0918 -0.13672,0.0547 -0.0918,0.0391 -0.45703,0.18945 -0.19336,0.0762 -0.0332,0.0156 -0.22266,0.0957 -0.10937,0.0449 -0.11524,0.0488 -0.22266,0.0937 -0.0254,0.008 -0.19726,0.0859 -0.16211,0.0703 -0.0566,0.0254 -0.21875,0.0937 -0.0801,0.0332 -0.13672,0.0586 -0.21484,0.0957 -0.34961,0.15235 -0.0781,0.0371 -0.21093,0.0937 -0.0547,0.0234 -0.1543,0.0723 -0.18555,0.084 -0.0234,0.008 -0.20703,0.0977 -0.10547,0.0488 -0.0977,0.0449 -0.20508,0.0957 -0.0293,0.0156 -0.10938,0.0508 -0.008,0.004 -0.0547,0.0254 -0.15625,0.0723 -0.043,0.0234 -0.19726,0.0937 -0.084,0.0391 h -0.004 l -0.30469,0.15039 -0.004,0.004 -0.154295,0.0762 -0.03516,0.0176 -0.07422,0.0371 -0.05273,0.0254 -0.0625,0.0332 -0.101563,0.0508 -0.03906,0.0195 -0.04883,0.0254 -0.01758,0.01 -0.04102,0.0195 -0.128907,0.0664 -0.04102,0.0215 -0.0039,0.002 -0.0039,0.002 -0.123046,0.0645 -0.01367,0.006 -0.152344,0.082 -0.02148,0.01 -0.0098,0.006 -0.02539,0.0137 -0.07617,0.0391 -0.08008,0.043 -0.179687,0.0977 -0.03125,0.0137 -0.144532,0.082 -0.01172,0.006 -0.05273,0.0274 -0.04687,0.0273 -0.0332,0.0176 -0.03125,0.0176 -0.173828,0.0976 -0.01172,0.006 -0.0625,0.0391 -0.0332,0.0176 h -0.002 l -0.06055,0.0332 -0.167969,0.0977 -0.01367,0.006 -0.154297,0.0918 -0.0098,0.006 -0.06836,0.0391 -0.04102,0.0273 -0.04492,0.0254 -0.08398,0.0508 -0.01563,0.01 -0.0918,0.0547 -0.0059,0.004 -0.01758,0.01 -0.105469,0.0684 -0.05273,0.0312 -0.08984,0.0547 -0.0098,0.006 v 0.002 l -0.0039,0.002 -0.02539,0.0156 -0.04883,0.0293 -0.03125,0.0215 -0.144531,0.0898 -0.05859,0.041 -0.02734,0.0176 -0.125,0.0781 -0.03125,0.0234 -0.0332,0.0234 -0.06445,0.043 -0.08398,0.0547 -0.05078,0.0352 h -0.0039 l -0.0039,0.002 v 0.002 l -0.01953,0.0176 -0.0039,0.002 -0.01172,0.008 -0.126953,0.0859 -0.01172,0.008 -0.05078,0.0371 -0.0059,0.004 -0.03516,0.0273 -0.01758,0.0117 -0.01953,0.0137 -0.04297,0.0293 -0.07617,0.0566 -0.01758,0.0117 -0.01758,0.0117 -0.07813,0.0586 -0.04102,0.0312 -0.07617,0.0566 -0.01563,0.0117 -0.0059,0.002 -0.0332,0.0273 -0.02148,0.0156 -0.01172,0.008 -0.09766,0.0742 -0.03711,0.0312 -0.0098,0.008 -0.0625,0.0508 -0.01758,0.0156 -0.123047,0.0957 -0.002,0.002 v 0.002 l -0.0059,0.01 -0.0059,0.0117 -0.01953,0.0391 -0.0078,0.0137 v 0.002 l -0.0059,0.01 v 0.002 l -0.0078,0.01 v 0.002 l -0.0059,0.0137 -0.0059,0.0117 -0.0078,0.0117 v 0.002 l -0.0059,0.0137 -0.0078,0.0117 -0.07031,0.14258 -0.0078,0.0137 v 0.002 l -0.0059,0.0117 -0.0078,0.0137 v 0.002 l -0.03125,0.0625 -0.0078,0.0137 -0.0059,0.0117 -0.0059,0.0156 -0.0078,0.0137 -0.04492,0.0879 -0.0039,0.0176 -0.0078,0.01 v 0.002 l -0.0059,0.0137 v 0.002 l -0.0078,0.01 v 0.002 l -0.0059,0.0117 -0.0059,0.0137 -0.0059,0.0137 -0.0059,0.0137 -0.0078,0.0117 v 0.002 l -0.0059,0.0117 v 0.002 l -0.0078,0.0137 -0.0059,0.0117 -0.0059,0.0137 -0.0078,0.01 -0.0059,0.0137 v 0.002 l -0.0059,0.0156 -0.0078,0.0137 -0.0039,0.0117 -0.0059,0.0117 v 0.002 l -0.0078,0.01 v 0.002 l -0.0059,0.0137 v 0.002 l -0.08398,0.17578 -0.0078,-0.0137 -0.0078,-0.0195 -0.191406,-0.40235 -0.0078,-0.0137 v -0.002 l -0.0078,-0.0156 -0.0059,-0.0176 -0.0059,-0.01 -0.0039,-0.004 -0.0078,-0.0156 -0.0078,-0.0156 -0.189453,-0.3789 -0.0078,-0.0156 -0.0098,-0.0156 -0.0059,-0.0137 -0.0078,-0.0195 -0.002,-0.002 -0.0078,-0.0117 -0.0078,-0.0117 v -0.002 l -0.0078,-0.0156 -0.195312,-0.15625 -0.0078,-0.008 -0.0059,-0.004 -0.03906,-0.0332 -0.128906,-0.0976 -0.03711,-0.0293 -0.08789,-0.0625 -0.0039,-0.004 -0.0039,-0.002 -0.06641,-0.0527 -0.03516,-0.0234 -0.02148,-0.0156 -0.0098,-0.008 -0.0098,-0.006 -0.126953,-0.0918 -0.02734,-0.0195 -0.05078,-0.0371 -0.06055,-0.041 -0.140626,-0.0977 -0.03125,-0.0234 -0.07812,-0.0527 -0.03711,-0.0254 -0.08398,-0.0527 -0.03906,-0.0274 -0.02148,-0.0137 -0.02148,-0.0137 -0.02734,-0.0195 -0.05664,-0.0371 -0.08398,-0.0547 -0.0332,-0.0215 -0.05273,-0.0352 -0.02344,-0.0137 -0.0039,-0.002 -0.144531,-0.0918 -0.0059,-0.004 -0.02148,-0.0137 -0.06055,-0.0371 -0.02148,-0.0137 -0.06641,-0.043 -0.08984,-0.0547 -0.01953,-0.0117 -0.0332,-0.0234 -0.126953,-0.0742 -0.0918,-0.0547 -0.0039,-0.002 -0.0078,-0.004 -0.07422,-0.043 -0.0059,-0.004 -0.01367,-0.008 -0.07813,-0.0469 -0.08594,-0.0508 -0.0078,-0.006 -0.0039,-0.002 -0.08984,-0.0508 -0.06445,-0.0391 -0.0293,-0.0156 -0.140625,-0.0801 -0.148437,-0.082 -0.02344,-0.0137 -0.06055,-0.0352 -0.111328,-0.0606 -0.09766,-0.0547 -0.07813,-0.043 v -0.002 l -0.177734,-0.0937 -0.115235,-0.0605 -0.0625,-0.0352 -0.181641,-0.0957 -0.05469,-0.0254 -0.03906,-0.0195 -0.0918,-0.0488 -0.01172,-0.006 -0.01953,-0.01 -0.08594,-0.0449 -0.05469,-0.0273 -0.01172,-0.006 -0.03906,-0.0215 -0.105468,-0.0527 -0.105469,-0.0547 -0.04687,-0.0234 -0.06055,-0.0273 -0.105469,-0.0566 -0.109375,-0.0508 -0.03711,-0.0176 -0.07031,-0.0391 -0.109375,-0.0527 -0.109375,-0.0527 -0.0293,-0.0137 -0.02539,-0.0117 -0.0039,-0.002 -0.05078,-0.0234 -0.03711,-0.0176 -0.07422,-0.0371 -0.03125,-0.0137 -0.03125,-0.0156 -0.06836,-0.0351 -0.0918,-0.043 -0.0059,-0.002 -0.05273,-0.0254 -0.05469,-0.0254 -0.0918,-0.0449 -0.01563,-0.006 -0.0059,-0.002 -0.0078,-0.002 -0.332031,-0.15821 -0.04297,-0.0195 -0.205078,-0.0937 -0.08789,-0.041 -0.117187,-0.0527 -0.207032,-0.0957 -0.01758,-0.008 -0.191406,-0.0859 -0.15039,-0.0664 -0.06055,-0.0293 -0.640625,-0.27929 h -0.002 l -0.214843,-0.0918 -0.140625,-0.0605 -0.07617,-0.0312 -0.21875,-0.0957 -0.06445,-0.0273 -0.154297,-0.0645 -0.208984,-0.0879 -0.01367,-0.006 -0.351563,-0.15039 -0.09375,-0.0371 -0.224609,-0.0918 -0.05078,-0.0215 -0.175781,-0.0742 -0.197265,-0.0801 -0.0293,-0.0117 -0.228516,-0.0937 -0.117187,-0.0449 -0.111328,-0.0469 -0.230469,-0.0937 -0.03516,-0.0137 -0.197265,-0.0762 -0.183594,-0.0762 -0.04687,-0.0176 -0.234375,-0.0937 -0.103515,-0.041 -0.13086,-0.0508 -0.234375,-0.0937 c -6.828666,8.04427 -13.399382,10.1834 -20.603515,12.41406 l 5.474609,8.82031 h 27.777344 27.777341 l 5.47266,-8.82031 c -7.21507,-2.236 -13.80026,-4.3811 -20.64453,-12.46484 z" />
    <path
       id="path7"
       d="M 94.619331,146.6228 V 160.928 H 66.841198 l -5.474,-8.82134 c 7.204134,-2.23066 13.775467,-4.36933 20.604133,-12.4136 l 0.233867,0.0939 0.1312,0.0515 0.103733,0.0401 0.233334,0.0932 0.04627,0.0177 0.1844,0.076 0.196934,0.0772 0.0364,0.0145 0.229733,0.0932 0.111467,0.0469 0.1172,0.0453 0.228666,0.0932 0.02813,0.012 0.197333,0.0801 0.176533,0.0735 0.05053,0.0213 0.224533,0.0917 0.09373,0.0375 0.352534,0.15053 0.0136,0.006 0.208266,0.088 0.155334,0.0635 0.06453,0.0272 0.217733,0.0957 0.07653,0.0319 0.140666,0.0615 0.215067,0.0905 h 0.0011 l 0.641066,0.28027 0.05947,0.0281 0.150533,0.0677 0.192133,0.0853 0.0172,0.008 0.2068,0.0963 0.1172,0.0516 0.08853,0.0417 0.2052,0.0932 0.0432,0.0197 0.3312,0.15786 0.02973,0.0104 0.199467,0.0959 0.09787,0.0453 0.09853,0.0509 0.197333,0.0933 0.02653,0.0119 0.1672,0.0829 0.150534,0.0744 0.608933,0.3052 0.01293,0.005 0.171867,0.088 0.1308,0.0683 0.0536,0.0265 0.1812,0.0948 0.0636,0.036 0.115067,0.0599 0.177066,0.0948 5.34e-4,0.002 0.1756,0.0968 0.112,0.0604 0.0604,0.036 0.1724,0.0948 0.1692,0.0959 0.153733,0.0891 0.01133,0.008 0.1652,0.0975 0.09373,0.0557 0.230133,0.1348 0.03387,0.0224 0.257866,0.15986 0.02133,0.0152 0.1536,0.0968 0.07613,0.0485 0.222933,0.14626 0.02187,0.0136 0.238533,0.15827 0.03013,0.0245 0.1412,0.0968 0.0604,0.0417 0.0792,0.0573 0.135866,0.0973 0.01,0.008 0.1228,0.0905 0.0948,0.0693 0.0376,0.0297 0.129067,0.0968 0.04427,0.0365 0.0095,0.008 0.195334,0.15733 0.0067,0.0161 0.0089,0.0131 0.0063,0.0119 0.002,0.002 0.0079,0.0188 0.0057,0.0145 0.0104,0.0147 0.0079,0.0161 0.19,0.37853 0.0079,0.0163 0.0073,0.0156 0.0031,0.003 0.0063,0.0109 0.0063,0.0172 0.0077,0.0161 0.0073,0.0147 0.191733,0.40253 0.0077,0.0188 0.0084,0.0145 z"
       style="fill:none;stroke:#211d1d;stroke-width:2.46667;stroke-linecap:butt;stroke-linejoin:miter;stroke-miterlimit:2.613;stroke-dasharray:none;stroke-opacity:1" />
    <path
       id="path9"
       d="m 94.619331,146.6228 v 14.3052 l -12.9688,-0.26827 -4.7912,-8.55307 c 3.393734,-1.96826 7.506267,-3.86666 11.2428,-9.80786 l 0.111867,0.0532 0.1136,0.0531 0.09267,0.0428 0.01933,0.0119 0.112,0.0521 0.111466,0.0536 0.0796,0.0385 0.02867,0.0131 0.109333,0.0536 0.108934,0.0521 0.0708,0.0385 0.03693,0.0188 0.11,0.0505 0.105733,0.0563 0.06093,0.0276 0.04533,0.0239 0.106667,0.0547 0.104666,0.0511 0.0516,0.0276 0.05413,0.0271 0.1048,0.0548 0.1036,0.0547 0.04013,0.0197 0.06293,0.0349 0.1016,0.0516 0.102667,0.0547 0.101467,0.0536 0.09907,0.0547 0.101467,0.0521 0.02133,0.0104 0.07813,0.0437 0.09853,0.0547 0.09733,0.0547 0.01413,0.006 0.08333,0.0491 0.0968,0.0536 0.0964,0.0557 0.0047,0.002 0.0912,0.0505 0.09373,0.0547 0.0896,0.0505 0.0041,0.003 0.09373,0.0563 0.09267,0.0547 0.07973,0.048 0.01093,0.005 0.0916,0.0547 0.09067,0.0563 0.0708,0.0411 0.01933,0.012 0.08907,0.0547 0.08853,0.0563 0.06093,0.0369 0.026,0.0177 0.086,0.0557 0.0864,0.0521 0.05267,0.0349 0.0328,0.0213 0.0844,0.0547 0.08427,0.0557 0.04333,0.0281 0.0396,0.0265 0.0828,0.0531 0.08013,0.0573 0.036,0.0213 0.04427,0.0349 0.0792,0.0547 0.0796,0.0547 0.02867,0.0188 0.05053,0.0369 0.154133,0.11093 0.0204,0.0147 0.05573,0.0385 0.07493,0.0572 0.074,0.0548 0.01293,0.009 0.06,0.0479 0.0724,0.0547 0.0728,0.0563 0.0057,0.004 0.2048,0.16507 0.0067,0.0161 0.0089,0.0131 0.0063,0.0119 0.002,0.002 0.0079,0.0188 0.0057,0.0145 0.0104,0.0147 0.0079,0.0161 0.19,0.37853 0.0079,0.0163 0.0073,0.0156 0.0031,0.003 0.0063,0.0109 0.0063,0.0172 0.0077,0.0161 0.0073,0.0147 0.191733,0.40253 0.0077,0.0188 0.0084,0.0145 z"
       style="fill:none;stroke:#211d1d;stroke-width:2.46667;stroke-linecap:butt;stroke-linejoin:miter;stroke-miterlimit:2.613;stroke-dasharray:none;stroke-opacity:1" />
    <path
       id="path11"
       d="m 94.619331,146.6228 v 14.3052 h 27.777999 l 5.4724,-8.82134 c -7.21507,-2.236 -13.8004,-4.38026 -20.64467,-12.464 l -0.10426,0.0427 -0.1328,0.052 -0.2364,0.0933 -0.0199,0.008 -0.21453,0.0855 -0.1656,0.0656 -0.0693,0.0308 -0.2344,0.0932 -0.0765,0.0292 -0.1552,0.064 -0.2224,0.0907 -0.0104,0.004 -0.23067,0.0916 -0.13493,0.0548 -0.0937,0.0391 -0.45574,0.188 -0.1932,0.0771 -0.0333,0.0161 -0.224,0.0948 -0.1084,0.0453 -0.11613,0.0489 -0.2224,0.0932 -0.0244,0.009 -0.19694,0.0844 -0.16306,0.0704 -0.0557,0.0255 -0.21866,0.0932 -0.0808,0.0333 -0.1364,0.0599 -0.21507,0.0948 -0.34907,0.15373 -0.078,0.0359 -0.212,0.0943 -0.0547,0.0229 -0.15427,0.0719 -0.18587,0.0839 -0.0235,0.009 -0.20574,0.0964 -0.1068,0.0489 -0.0973,0.0453 -0.20467,0.0964 -0.0297,0.0161 -0.1708,0.0787 -0.15787,0.0729 -0.0427,0.0239 -0.19694,0.0937 -0.0833,0.0385 -0.004,0.001 -0.30467,0.14947 -0.008,0.007 -0.185869,0.0907 -0.1276,0.0625 -0.06253,0.0333 -0.189067,0.0948 -0.05733,0.0291 -0.130134,0.0667 -0.171866,0.0896 -0.01307,0.007 -0.183333,0.0973 -0.102134,0.0532 -0.07907,0.0427 -0.181334,0.0975 -0.03067,0.0145 -0.143734,0.0812 -0.144266,0.0776 -0.03293,0.0172 -0.1728,0.0985 -0.074,0.0443 -0.09693,0.052 -0.167733,0.0975 -0.01293,0.006 -0.153733,0.0905 -0.117067,0.0709 -0.04853,0.028 -0.161467,0.1 -0.05307,0.0292 -0.1052,0.0667 -0.152667,0.0932 -0.0036,0.003 -0.026,0.0156 -0.222933,0.14174 -0.05987,0.0395 -0.151067,0.0975 -0.03227,0.0229 -0.03293,0.0224 -0.199466,0.13334 -0.0072,0.003 -0.01987,0.0177 -0.1432,0.0975 -0.01093,0.006 -0.109334,0.0803 -0.01987,0.0136 -0.136934,0.0984 -0.01667,0.012 -0.204667,0.15307 -0.012,0.007 -0.0344,0.0265 -0.129733,0.0989 -0.0484,0.0376 -0.07867,0.0667 -0.123867,0.0957 -0.0021,0.003 -0.0052,0.0109 -0.0068,0.012 -0.0192,0.0385 -0.0073,0.0145 -0.0068,0.012 -0.0068,0.012 -0.0067,0.0145 -0.0057,0.012 -0.0073,0.012 -0.0052,0.0145 -0.0084,0.012 -0.0708,0.14266 -0.0077,0.0152 -0.0057,0.012 -0.0073,0.0145 -0.0312,0.064 -0.0089,0.0131 -0.0047,0.012 -0.0068,0.0161 -0.0068,0.0136 -0.0448,0.0891 -0.0057,0.0161 -0.0077,0.0104 -0.0057,0.0161 -0.0068,0.012 -0.0057,0.012 -0.0068,0.0135 -0.0057,0.0145 -0.0061,0.0131 -0.0068,0.0125 -0.0068,0.0145 -0.0068,0.0147 -0.0057,0.0119 -0.0068,0.0131 -0.0067,0.0109 -0.0063,0.0136 -0.0057,0.0172 -0.0079,0.0129 -0.0047,0.012 -0.0063,0.0125 -0.0072,0.012 z"
       style="fill:none;stroke:#211d1d;stroke-width:2.46667;stroke-linecap:butt;stroke-linejoin:miter;stroke-miterlimit:2.613;stroke-dasharray:none;stroke-opacity:1" />
    <path
       id="path13"
       d="m 94.619331,146.6228 v 14.3052 l 12.969199,-0.26827 4.79267,-8.55307 c -3.40614,-1.97706 -7.53747,-3.88026 -11.28387,-9.86933 l -0.22853,0.10787 -0.1152,0.0573 -0.2276,0.10827 -0.11094,0.0521 -0.0885,0.0411 -0.0255,0.0131 -0.11093,0.0563 -0.1104,0.0521 -0.220399,0.10774 -0.109333,0.0563 -0.217734,0.10934 -0.1052,0.0548 -0.213466,0.10773 -0.21,0.112 -0.1052,0.0531 -0.512,0.27613 -0.09893,0.052 -0.07907,0.0443 -0.01933,0.012 -0.09787,0.0547 -0.1,0.0548 -0.06253,0.0385 -0.03387,0.0172 -0.09787,0.0547 -0.190133,0.11094 -0.09373,0.0547 -0.0948,0.0541 -0.09373,0.0604 -0.0928,0.0532 -0.09107,0.0547 -0.02347,0.0145 -0.06933,0.0428 -0.08853,0.0561 -0.0896,0.0532 -0.0104,0.008 -0.07813,0.0485 -0.08853,0.0572 -0.08587,0.0548 -0.0027,0.003 -0.0848,0.0532 -0.0844,0.0588 -0.086,0.0547 -0.08333,0.0557 -0.08333,0.0547 -0.05827,0.0385 -0.02347,0.0188 -0.0812,0.0588 -0.08187,0.0547 -0.04427,0.0308 -0.03587,0.0265 -0.0792,0.0547 -0.0776,0.0557 -0.03333,0.0256 -0.04427,0.0323 -0.07653,0.0557 -0.07507,0.0573 -0.0208,0.0145 -0.0552,0.0416 -0.07293,0.0573 -0.074,0.0573 -0.0104,0.007 -0.06147,0.0504 -0.141067,0.112 -0.0021,0.003 -0.0052,0.0109 -0.0068,0.012 -0.0192,0.0385 -0.0073,0.0145 -0.0068,0.012 -0.0068,0.012 -0.0067,0.0145 -0.0057,0.012 -0.0073,0.012 -0.0052,0.0145 -0.0084,0.012 -0.0708,0.14266 -0.0077,0.0152 -0.0057,0.012 -0.0073,0.0145 -0.0312,0.064 -0.0089,0.0131 -0.0047,0.012 -0.0068,0.0161 -0.0068,0.0136 -0.0448,0.0891 -0.0057,0.0161 -0.0077,0.0104 -0.0057,0.0161 -0.0068,0.012 -0.0057,0.012 -0.0068,0.0135 -0.0057,0.0145 -0.0061,0.0131 -0.0068,0.0125 -0.0068,0.0145 -0.0068,0.0147 -0.0057,0.0119 -0.0068,0.0131 -0.0067,0.0109 -0.0063,0.0136 -0.0057,0.0172 -0.0079,0.0129 -0.0047,0.012 -0.0063,0.0125 -0.0072,0.012 z"
       style="fill:none;stroke:#211d1d;stroke-width:2.46667;stroke-linecap:butt;stroke-linejoin:miter;stroke-miterlimit:2.613;stroke-dasharray:none;stroke-opacity:1" />
    <path
       id="path14"
       style="fill:#ffffff;fill-opacity:1;fill-rule:evenodd;stroke:none;stroke-width:0.133333"
       d="m 94.535156,11.052734 -4.205078,9.160157 v 4.257812 h -1.123047 l -3.378906,59.601563 1.556641,-0.376954 c 2.531734,-4.624 4.809724,-5.944615 7.15039,-9.113281 2.340534,3.168666 4.533254,4.276344 7.064454,8.902344 l 1.64453,0.587891 -3.380859,-59.601563 h -1.125 v -4.257812 z" />
    <path
       id="path15"
       d="m 89.207331,24.470667 h 10.656267 l 3.379602,59.601066 -1.64267,-0.5864 c -2.531199,-4.626 -4.724532,-5.735467 -7.065066,-8.904133 -2.340666,3.168666 -4.618266,4.491066 -7.15,9.115066 l -1.556799,0.375467 z"
       style="fill:none;stroke:#211d1d;stroke-width:1.85067;stroke-linecap:butt;stroke-linejoin:miter;stroke-miterlimit:2.613;stroke-dasharray:none;stroke-opacity:1" />
    <path
       id="path16"
       d="M 91.734931,24.548001 90.575464,79.322266"
       style="fill:none;stroke:#211d1d;stroke-width:1.85067;stroke-linecap:butt;stroke-linejoin:miter;stroke-miterlimit:2.613;stroke-dasharray:none;stroke-opacity:1" />
    <path
       id="path17"
       d="m 97.333331,23.200001 1.163067,55.957732"
       style="fill:none;stroke:#211d1d;stroke-width:1.85067;stroke-linecap:butt;stroke-linejoin:miter;stroke-miterlimit:2.613;stroke-dasharray:none;stroke-opacity:1" />
    <path
       id="path18"
       d="M 94.535464,24.548001 V 74.824933"
       style="fill:none;stroke:#211d1d;stroke-width:1.85067;stroke-linecap:butt;stroke-linejoin:miter;stroke-miterlimit:2.613;stroke-dasharray:none;stroke-opacity:1" />
    <path
       id="path20"
       d="m 90.330264,20.213334 4.204134,-9.161333 4.2036,9.161333 v 4.286667 h -8.407734 z"
       style="fill:none;stroke:#211d1d;stroke-width:1.85067;stroke-linecap:butt;stroke-linejoin:miter;stroke-miterlimit:2.613;stroke-dasharray:none;stroke-opacity:1" />
    <path
       id="path21"
       style="fill:#f5f014;fill-opacity:1;fill-rule:evenodd;stroke:none;stroke-width:0.133333"
       d="m 94.535156,75.365234 c -3.181487,3.173119 -6.150701,6.660831 -8.736328,10.408204 -5.51369,-4.942444 -12.207241,-8.265285 -19.800781,-8.378907 4.835221,3.026769 4.287298,9.289867 2.722656,16.521485 -4.179129,-5.937491 -10.271126,-10.094859 -18.861328,-10.22461 10.276533,7.441067 0.912341,26.601484 6.869141,39.421874 2.6776,5.76147 8.127226,10.02227 15.193359,12.74414 8.9396,3.44533 18.602881,6.69619 22.613281,10.35352 4.011467,-3.65733 13.671504,-6.90819 22.615234,-10.35352 7.06347,-2.72187 12.51687,-6.98267 15.19141,-12.74414 5.9588,-12.82039 -3.40552,-31.980807 6.86914,-39.421874 -8.58994,0.129751 -14.68168,4.287119 -18.86133,10.22461 -1.56418,-7.23098 -2.112,-13.494924 2.72266,-16.521485 -7.59476,0.113632 -14.28681,3.436978 -19.80079,8.376953 1.13454,1.643964 2.17097,3.350736 3.14258,5.089844 C 103.22819,85.15943 99.112009,79.929525 94.535156,75.365234 Z m 12.136724,15.914063 c 0.10777,0.196701 0.1914,0.403731 0.29687,0.601562 -0.10537,-0.197616 -0.18921,-0.405073 -0.29687,-0.601562 z m 2.53906,5.347656 c 0.23364,0.560202 0.43869,1.127735 0.65234,1.695313 -0.21341,-0.566773 -0.419,-1.135898 -0.65234,-1.695313 z m 1.98437,5.775387 c 0.162,0.57986 0.33511,1.15401 0.47461,1.74024 -0.1394,-0.58563 -0.31277,-1.16098 -0.47461,-1.74024 z m 12.04492,4.96094 c 0.16051,0.9108 0.35137,1.79274 0.46485,2.69336 -0.1122,-0.88963 -0.30671,-1.79373 -0.46485,-2.69336 z m -57.431636,0.15039 c -0.156337,0.9015 -0.349602,1.80816 -0.458985,2.69922 0.11055,-0.90221 0.300377,-1.78637 0.458985,-2.69922 z m 58.078126,4.21875 c 0.0423,0.48862 0.0793,0.97446 0.10156,1.45703 -0.0223,-0.48202 -0.0593,-0.96897 -0.10156,-1.45703 z m -58.718751,0.21485 c -0.03792,0.46791 -0.07064,0.93427 -0.08984,1.39648 0.01913,-0.4626 0.05197,-0.92818 0.08984,-1.39648 z m 58.828121,3.30664 c -0.0123,0.53479 -0.009,1.07442 -0.0547,1.59765 0.0455,-0.52311 0.0424,-1.06299 0.0547,-1.59765 z m -58.914059,0.23437 c 0.01631,0.51446 0.01679,1.03362 0.06445,1.53711 -0.04766,-0.50331 -0.0481,-1.02285 -0.06445,-1.53711 z m 58.814449,1.81055 c -0.097,0.90576 -0.24201,1.79418 -0.45703,2.65625 0.21495,-0.86209 0.36008,-1.75045 0.45703,-2.65625 z m -58.662105,0.53515 c 0.0269,0.20322 0.05512,0.40636 0.08789,0.60743 -0.03279,-0.20117 -0.06098,-0.4041 -0.08789,-0.60743 z m 0.298828,1.68164 c 0.03991,0.17915 0.07585,0.35998 0.121094,0.53711 -0.04527,-0.17724 -0.08116,-0.35784 -0.121094,-0.53711 z m 57.652347,1.32422 c -0.0605,0.19646 -0.1119,0.39622 -0.17969,0.58985 0.0678,-0.19369 0.1192,-0.39332 0.17969,-0.58985 z m -57.177738,0.38672 c 0.04194,0.12508 0.07609,0.25307 0.121094,0.37696 -0.04502,-0.12394 -0.07914,-0.25183 -0.121094,-0.37696 z m 25.183594,20.20703 h 0.002 c 0.612389,0.62642 1.20333,1.26955 1.763672,1.94727 -0.560414,-0.67773 -1.15318,-1.32084 -1.765625,-1.94727 z" />
    <path
       id="path22"
       d="m 49.858399,83.691599 c 10.276533,7.441067 0.912933,26.601471 6.869733,39.421861 2.6776,5.76147 8.1276,10.02187 15.193733,12.74374 8.9396,3.44533 18.603199,6.69733 22.613599,10.35466 v -0.0547 c -4.616666,-9.9188 -20.504266,-8.27187 -27.769866,-23.04374 -4.028666,-8.19279 -0.09107,-19.56519 1.9932,-29.147461 -4.180133,-5.9656 -10.284799,-10.144266 -18.900399,-10.2744 z"
       style="fill:none;stroke:#211d1d;stroke-width:2.09867;stroke-linecap:butt;stroke-linejoin:miter;stroke-miterlimit:2.613;stroke-dasharray:none;stroke-opacity:1" />
    <path
       id="path24"
       d="m 65.997865,77.394666 c 11.259466,7.048 -6.3228,31.304664 0.766133,45.718794 7.2672,14.77187 23.1548,13.12494 27.771466,23.04374 v -0.624 c -2.5324,-3.94947 -6.144266,-6.52654 -9.515199,-10.09587 l -0.07653,-0.0801 -0.08227,-0.0693 c -7.2104,-6.05466 -9.381734,-16.30359 -8.489067,-25.29839 0.8724,-8.77187 4.431733,-16.976538 9.427067,-24.215071 -5.514,-4.9432 -12.207334,-8.266133 -19.8016,-8.379733 z"
       style="fill:none;stroke:#211d1d;stroke-width:2.09867;stroke-linecap:butt;stroke-linejoin:miter;stroke-miterlimit:2.613;stroke-dasharray:none;stroke-opacity:1" />
    <path
       id="path26"
       d="M 139.21066,83.691599 C 128.936,91.132666 138.3,110.29307 132.3412,123.11346 c -2.67454,5.76147 -8.12667,10.02187 -15.19014,12.74374 -8.94373,3.44533 -18.604129,6.69733 -22.615596,10.35466 v -0.0547 c 4.618134,-9.9188 20.503596,-8.27187 27.770796,-23.04374 4.02974,-8.19279 0.0911,-19.56519 -1.9948,-29.147461 4.18067,-5.9656 10.28387,-10.144266 18.8992,-10.2744 z"
       style="fill:none;stroke:#211d1d;stroke-width:2.09867;stroke-linecap:butt;stroke-linejoin:miter;stroke-miterlimit:2.613;stroke-dasharray:none;stroke-opacity:1" />
    <path
       id="path28"
       d="m 123.07293,77.394666 c -11.25893,7.048 6.32187,31.304664 -0.76667,45.718794 -7.2672,14.77187 -23.152662,13.12494 -27.770796,23.04374 v -0.624 0 c 2.532267,-3.94947 6.144266,-6.52654 9.516666,-10.09587 l 0.0739,-0.0801 0.0833,-0.0693 c 7.21093,-6.05466 9.3828,-16.30359 8.4876,-25.29839 -0.8704,-8.77187 -4.42867,-16.979204 -9.42453,-24.218271 5.514,-4.94 12.20573,-8.262933 19.80053,-8.376533 z"
       style="fill:none;stroke:#211d1d;stroke-width:2.09867;stroke-linecap:butt;stroke-linejoin:miter;stroke-miterlimit:2.613;stroke-dasharray:none;stroke-opacity:1" />
    <path
       id="path30"
       d="m 94.535464,145.5332 c 2.532267,-3.94947 6.144266,-6.52654 9.516666,-10.09587 l 0.0739,-0.0801 0.0833,-0.0693 c 7.21093,-6.052 9.3828,-16.30359 8.48853,-25.29839 C 111.376,96.676932 103.8636,84.667066 94.535464,75.364533 85.208398,84.667066 77.695865,96.676932 76.372398,109.98947 c -0.893733,8.9948 1.278667,19.24639 8.489067,25.29839 l 0.08227,0.0693 0.07507,0.0801 c 3.373866,3.56933 6.984266,6.1464 9.516666,10.09587 z"
       style="fill:none;stroke:#211d1d;stroke-width:2.09733;stroke-linecap:butt;stroke-linejoin:miter;stroke-miterlimit:22.926;stroke-dasharray:none;stroke-opacity:1" />
  </g>
</svg>
